<?xml version="1.0" encoding="UTF-8"?>
<!DOCTYPE svg PUBLIC "-//W3C//DTD SVG 1.1//EN" "http://www.w3.org/Graphics/SVG/1.1/DTD/svg11.dtd">
<svg version="1.2" width="25.4mm" height="25.4mm" viewBox="0 0 2540 2540" preserveAspectRatio="xMidYMid" fill-rule="evenodd" stroke-width="28.222" stroke-linejoin="round" xmlns="http://www.w3.org/2000/svg" xmlns:ooo="http://xml.openoffice.org/svg/export" xmlns:xlink="http://www.w3.org/1999/xlink" xmlns:presentation="http://sun.com/xmlns/staroffice/presentation" xmlns:smil="http://www.w3.org/2001/SMIL20/" xmlns:anim="urn:oasis:names:tc:opendocument:xmlns:animation:1.0" xml:space="preserve">
 <defs class="ClipPathGroup">
  <clipPath id="presentation_clip_path" clipPathUnits="userSpaceOnUse">
   <rect x="0" y="0" width="2540" height="2540"/>
  </clipPath>
  <clipPath id="presentation_clip_path_shrink" clipPathUnits="userSpaceOnUse">
   <rect x="2" y="2" width="2535" height="2535"/>
  </clipPath>
 </defs>
 <defs class="TextShapeIndex">
  <g ooo:slide="id1" ooo:id-list="id3 id4 id5 id6 id7 id8 id9 id10 id11 id12 id13 id14 id15 id16 id17 id18 id19 id20 id21"/>
 </defs>
 <defs class="EmbeddedBulletChars">
  <g id="bullet-char-template-57356" transform="scale(0.00048828125,-0.00048828125)">
   <path d="M 580,1141 L 1163,571 580,0 -4,571 580,1141 Z"/>
  </g>
  <g id="bullet-char-template-57354" transform="scale(0.00048828125,-0.00048828125)">
   <path d="M 8,1128 L 1137,1128 1137,0 8,0 8,1128 Z"/>
  </g>
  <g id="bullet-char-template-10146" transform="scale(0.00048828125,-0.00048828125)">
   <path d="M 174,0 L 602,739 174,1481 1456,739 174,0 Z M 1358,739 L 309,1346 659,739 1358,739 Z"/>
  </g>
  <g id="bullet-char-template-10132" transform="scale(0.00048828125,-0.00048828125)">
   <path d="M 2015,739 L 1276,0 717,0 1260,543 174,543 174,936 1260,936 717,1481 1274,1481 2015,739 Z"/>
  </g>
  <g id="bullet-char-template-10007" transform="scale(0.00048828125,-0.00048828125)">
   <path d="M 0,-2 C -7,14 -16,27 -25,37 L 356,567 C 262,823 215,952 215,954 215,979 228,992 255,992 264,992 276,990 289,987 310,991 331,999 354,1012 L 381,999 492,748 772,1049 836,1024 860,1049 C 881,1039 901,1025 922,1006 886,937 835,863 770,784 769,783 710,716 594,584 L 774,223 C 774,196 753,168 711,139 L 727,119 C 717,90 699,76 672,76 641,76 570,178 457,381 L 164,-76 C 142,-110 111,-127 72,-127 30,-127 9,-110 8,-76 1,-67 -2,-52 -2,-32 -2,-23 -1,-13 0,-2 Z"/>
  </g>
  <g id="bullet-char-template-10004" transform="scale(0.00048828125,-0.00048828125)">
   <path d="M 285,-33 C 182,-33 111,30 74,156 52,228 41,333 41,471 41,549 55,616 82,672 116,743 169,778 240,778 293,778 328,747 346,684 L 369,508 C 377,444 397,411 428,410 L 1163,1116 C 1174,1127 1196,1133 1229,1133 1271,1133 1292,1118 1292,1087 L 1292,965 C 1292,929 1282,901 1262,881 L 442,47 C 390,-6 338,-33 285,-33 Z"/>
  </g>
  <g id="bullet-char-template-9679" transform="scale(0.00048828125,-0.00048828125)">
   <path d="M 813,0 C 632,0 489,54 383,161 276,268 223,411 223,592 223,773 276,916 383,1023 489,1130 632,1184 813,1184 992,1184 1136,1130 1245,1023 1353,916 1407,772 1407,592 1407,412 1353,268 1245,161 1136,54 992,0 813,0 Z"/>
  </g>
  <g id="bullet-char-template-8226" transform="scale(0.00048828125,-0.00048828125)">
   <path d="M 346,457 C 273,457 209,483 155,535 101,586 74,649 74,723 74,796 101,859 155,911 209,963 273,989 346,989 419,989 480,963 531,910 582,859 608,796 608,723 608,648 583,586 532,535 482,483 420,457 346,457 Z"/>
  </g>
  <g id="bullet-char-template-8211" transform="scale(0.00048828125,-0.00048828125)">
   <path d="M -4,459 L 1135,459 1135,606 -4,606 -4,459 Z"/>
  </g>
  <g id="bullet-char-template-61548" transform="scale(0.00048828125,-0.00048828125)">
   <path d="M 173,740 C 173,903 231,1043 346,1159 462,1274 601,1332 765,1332 928,1332 1067,1274 1183,1159 1299,1043 1357,903 1357,740 1357,577 1299,437 1183,322 1067,206 928,148 765,148 601,148 462,206 346,322 231,437 173,577 173,740 Z"/>
  </g>
 </defs>
 <g>
  <g id="id2" class="Master_Slide">
   <g id="bg-id2" class="Background"/>
   <g id="bo-id2" class="BackgroundObjects"/>
  </g>
 </g>
 <g class="SlideGroup">
  <g>
   <g id="container-id1">
    <g id="id1" class="Slide" clip-path="url(#presentation_clip_path)">
     <g class="Page">
      <g class="com.sun.star.drawing.CustomShape">
       <g id="id3">
        <rect class="BoundingBox" stroke="none" fill="none" x="0" y="0" width="2542" height="2542"/>
        <path fill="rgb(255,255,255)" stroke="none" d="M 2541,1271 C 2541,1494 2482,1713 2371,1906 2259,2099 2099,2259 1906,2371 1713,2482 1494,2541 1271,2541 1047,2541 828,2482 635,2371 442,2259 282,2099 170,1906 59,1713 0,1494 0,1271 0,1047 59,828 170,635 282,442 442,282 635,170 828,59 1047,0 1270,0 1494,0 1713,59 1906,170 2099,282 2259,442 2371,635 2482,828 2541,1047 2541,1270 L 2541,1271 Z"/>
       </g>
      </g>
      <g class="com.sun.star.drawing.ClosedBezierShape">
       <g id="id4">
        <rect class="BoundingBox" stroke="none" fill="none" x="902" y="28" width="735" height="344"/>
        <path fill="rgb(255,0,0)" stroke="none" d="M 942,44 C 963,38 984,33 1005,29 1007,42 1009,56 1013,69 1019,91 1028,113 1039,133 1051,153 1065,171 1082,188 1098,204 1116,218 1136,230 1157,241 1178,250 1200,256 1223,262 1246,265 1269,265 1292,265 1315,262 1337,256 1360,250 1381,241 1401,230 1422,218 1440,204 1456,188 1473,171 1487,153 1498,133 1510,113 1519,91 1525,69 1528,55 1531,42 1532,28 1555,33 1577,38 1599,44 1611,47 1624,51 1636,54 1634,69 1631,82 1627,96 1619,127 1606,157 1590,186 1574,214 1554,240 1531,263 1508,285 1483,305 1454,321 1426,338 1396,350 1365,359 1334,367 1301,371 1269,371 1236,371 1204,367 1173,359 1142,350 1112,338 1083,321 1055,305 1029,285 1007,263 984,240 964,214 948,186 931,157 919,127 911,96 907,83 904,69 902,55 915,51 928,48 942,44 Z"/>
       </g>
      </g>
      <g class="com.sun.star.drawing.CustomShape">
       <g id="id5">
        <rect class="BoundingBox" stroke="none" fill="none" x="566" y="566" width="1407" height="1407"/>
        <path fill="none" stroke="rgb(255,0,0)" stroke-width="159" stroke-linejoin="round" d="M 1892,1269 C 1892,1378 1863,1486 1809,1581 1754,1675 1675,1754 1581,1809 1486,1863 1378,1892 1269,1892 1160,1892 1052,1863 958,1809 863,1754 784,1675 729,1581 675,1486 646,1378 646,1269 646,1160 675,1052 729,958 784,863 863,784 957,729 1052,675 1160,646 1269,646 1378,646 1486,675 1580,729 1675,784 1754,863 1809,957 1863,1052 1892,1160 1892,1269 L 1892,1269 Z"/>
       </g>
      </g>
      <g class="com.sun.star.drawing.ClosedBezierShape">
       <g id="id6">
        <rect class="BoundingBox" stroke="none" fill="none" x="29" y="902" width="343" height="735"/>
        <path fill="rgb(255,0,0)" stroke="none" d="M 45,1600 C 39,1577 34,1555 29,1532 43,1531 56,1528 69,1525 91,1519 113,1510 133,1498 153,1487 171,1472 188,1456 204,1440 218,1421 230,1401 242,1381 250,1360 256,1337 262,1315 265,1292 265,1269 265,1245 262,1222 256,1200 250,1178 242,1156 230,1136 218,1116 204,1098 188,1081 171,1065 153,1051 133,1039 113,1028 91,1019 69,1013 56,1009 43,1007 30,1005 35,984 40,963 45,942 49,929 53,915 57,902 70,904 83,907 96,910 128,919 158,931 186,947 214,964 240,984 263,1006 286,1029 305,1055 322,1083 338,1111 350,1141 359,1173 367,1204 371,1236 371,1269 371,1301 367,1334 359,1365 350,1396 338,1426 322,1454 305,1482 286,1508 263,1531 240,1554 214,1574 186,1590 158,1606 128,1619 96,1627 83,1631 69,1634 55,1636 52,1624 48,1612 45,1600 Z"/>
       </g>
      </g>
      <g class="com.sun.star.drawing.ClosedBezierShape">
       <g id="id7">
        <rect class="BoundingBox" stroke="none" fill="none" x="2167" y="902" width="348" height="736"/>
        <path fill="rgb(255,0,0)" stroke="none" d="M 2498,943 C 2504,964 2509,985 2513,1006 2499,1007 2484,1010 2470,1013 2448,1019 2427,1028 2407,1040 2386,1051 2368,1066 2352,1082 2335,1098 2321,1117 2310,1137 2298,1157 2289,1178 2283,1201 2277,1223 2274,1246 2274,1269 2274,1293 2277,1316 2283,1338 2289,1360 2298,1382 2310,1402 2321,1422 2335,1440 2352,1457 2368,1473 2386,1487 2406,1499 2427,1510 2448,1519 2470,1525 2485,1529 2499,1532 2514,1533 2510,1556 2504,1578 2498,1600 2495,1613 2492,1625 2488,1637 2473,1635 2458,1632 2443,1628 2412,1619 2382,1607 2354,1591 2325,1574 2299,1554 2277,1532 2254,1509 2234,1483 2218,1455 2201,1427 2189,1396 2181,1365 2172,1334 2168,1302 2168,1269 2168,1237 2172,1204 2181,1173 2189,1142 2201,1112 2218,1084 2234,1056 2254,1030 2277,1007 2299,984 2325,964 2354,948 2382,932 2412,919 2443,911 2457,907 2472,904 2486,902 2491,916 2495,929 2498,943 Z"/>
       </g>
      </g>
      <g class="com.sun.star.drawing.ClosedBezierShape">
       <g id="id8">
        <rect class="BoundingBox" stroke="none" fill="none" x="902" y="2167" width="736" height="348"/>
        <path fill="rgb(255,0,0)" stroke="none" d="M 1600,2498 C 1578,2504 1556,2510 1533,2514 1532,2499 1529,2485 1525,2470 1519,2448 1510,2427 1499,2406 1487,2386 1473,2368 1457,2352 1440,2335 1422,2321 1402,2310 1382,2298 1360,2289 1338,2283 1316,2277 1293,2274 1269,2274 1246,2274 1223,2277 1201,2283 1178,2289 1157,2298 1137,2310 1117,2321 1098,2335 1082,2352 1066,2368 1051,2386 1040,2407 1028,2427 1019,2448 1013,2470 1010,2484 1007,2499 1006,2513 985,2509 964,2504 943,2498 929,2495 916,2491 902,2486 904,2472 907,2457 911,2443 919,2412 932,2382 948,2354 964,2325 984,2299 1007,2277 1030,2254 1056,2234 1084,2218 1112,2201 1142,2189 1173,2181 1204,2172 1237,2168 1269,2168 1302,2168 1334,2172 1365,2181 1396,2189 1427,2201 1455,2218 1483,2234 1509,2254 1532,2277 1554,2299 1574,2325 1591,2353 1607,2382 1619,2412 1628,2443 1632,2458 1635,2473 1637,2488 1625,2492 1613,2495 1600,2498 Z"/>
       </g>
      </g>
      <g class="com.sun.star.drawing.ClosedBezierShape">
       <g id="id9">
        <rect class="BoundingBox" stroke="none" fill="none" x="1851" y="160" width="530" height="529"/>
        <path fill="rgb(255,0,0)" stroke="none" d="M 1906,172 C 1931,186 1954,200 1977,216 1973,226 1969,237 1966,248 1960,271 1957,294 1957,317 1957,340 1960,363 1966,386 1972,408 1981,429 1993,450 2004,470 2018,488 2035,504 2051,521 2069,535 2090,547 2110,558 2131,567 2153,573 2176,579 2199,582 2222,582 2245,582 2268,579 2291,573 2302,570 2313,566 2324,561 2341,586 2357,611 2371,637 2374,642 2377,647 2380,652 2360,662 2339,670 2318,675 2287,684 2255,688 2222,688 2189,688 2157,684 2126,675 2095,667 2065,655 2037,638 2008,622 1982,602 1960,579 1937,557 1917,531 1901,503 1884,474 1872,444 1864,413 1855,382 1851,350 1851,317 1851,284 1855,252 1864,221 1869,200 1877,180 1886,160 1893,164 1900,168 1906,172 Z"/>
       </g>
      </g>
      <g class="com.sun.star.drawing.ClosedBezierShape">
       <g id="id10">
        <rect class="BoundingBox" stroke="none" fill="none" x="160" y="1851" width="529" height="530"/>
        <path fill="rgb(255,0,0)" stroke="none" d="M 637,2371 C 611,2357 586,2341 561,2324 566,2313 570,2302 573,2291 579,2268 582,2245 582,2222 582,2199 579,2176 573,2153 567,2131 558,2110 547,2089 535,2069 521,2051 504,2035 488,2018 470,2004 450,1993 429,1981 408,1972 386,1966 363,1960 340,1957 317,1957 294,1957 271,1960 248,1966 237,1969 226,1973 216,1977 200,1954 186,1931 172,1906 168,1900 164,1893 160,1886 180,1877 200,1869 221,1864 252,1855 284,1851 317,1851 350,1851 382,1855 413,1864 444,1872 474,1884 503,1901 531,1917 557,1937 579,1960 602,1982 622,2008 638,2036 655,2065 667,2095 675,2126 684,2157 688,2189 688,2222 688,2255 684,2287 675,2318 670,2339 662,2360 652,2380 647,2377 642,2374 637,2371 Z"/>
       </g>
      </g>
      <g class="com.sun.star.drawing.ClosedBezierShape">
       <g id="id11">
        <rect class="BoundingBox" stroke="none" fill="none" x="162" y="162" width="527" height="527"/>
        <path fill="rgb(255,0,0)" stroke="none" d="M 172,637 C 186,612 202,587 218,563 228,567 238,570 249,573 271,579 294,582 317,582 341,582 364,579 386,573 408,567 430,558 450,547 470,535 488,521 505,505 521,488 535,470 547,450 558,430 567,408 573,386 579,364 582,341 582,317 582,294 579,271 573,249 570,238 567,228 563,218 587,202 612,186 637,172 643,169 648,165 654,162 663,181 670,201 676,221 684,252 688,285 688,317 688,350 684,382 676,413 667,444 655,475 639,503 622,531 602,557 580,580 557,602 531,622 503,639 475,655 444,667 413,676 382,684 350,688 317,688 285,688 252,684 221,676 201,670 181,663 162,654 165,648 169,643 172,637 Z"/>
       </g>
      </g>
      <g class="com.sun.star.drawing.ClosedBezierShape">
       <g id="id12">
        <rect class="BoundingBox" stroke="none" fill="none" x="1850" y="1850" width="533" height="533"/>
        <path fill="rgb(255,0,0)" stroke="none" d="M 2371,1906 C 2357,1931 2342,1955 2327,1978 2315,1973 2303,1969 2291,1966 2268,1960 2245,1957 2222,1957 2199,1957 2176,1960 2153,1966 2131,1972 2110,1981 2090,1993 2069,2004 2051,2018 2035,2035 2018,2051 2004,2069 1993,2089 1981,2110 1972,2131 1966,2153 1960,2176 1957,2199 1957,2222 1957,2245 1960,2268 1966,2291 1969,2303 1973,2315 1978,2327 1955,2342 1931,2357 1906,2371 1900,2375 1894,2379 1887,2382 1877,2362 1870,2340 1864,2318 1855,2287 1851,2255 1851,2222 1851,2189 1855,2157 1864,2126 1872,2095 1884,2065 1901,2037 1917,2008 1937,1982 1960,1960 1982,1937 2008,1917 2037,1901 2065,1884 2095,1872 2126,1864 2157,1855 2189,1851 2222,1851 2255,1851 2287,1855 2318,1864 2340,1870 2362,1877 2382,1887 2379,1894 2375,1900 2371,1906 Z"/>
       </g>
      </g>
      <g class="com.sun.star.drawing.ClosedBezierShape">
       <g id="id13">
        <rect class="BoundingBox" stroke="none" fill="none" x="1317" y="354" width="866" height="868"/>
        <path fill="rgb(0,0,0)" stroke="none" d="M 1318,1157 L 1318,1082 1799,600 1660,461 C 1658,459 1657,457 1655,455 1653,451 1652,446 1652,442 1652,437 1653,433 1655,429 1658,424 1661,421 1665,419 1668,417 1671,416 1675,415 L 2151,354 C 2153,354 2154,354 2155,354 2160,354 2164,355 2168,358 2172,360 2175,363 2178,367 2180,371 2181,376 2181,381 2181,382 2181,383 2181,384 L 2121,861 C 2121,865 2120,868 2118,871 2116,875 2112,879 2108,881 2104,883 2100,885 2095,885 2090,885 2086,883 2082,881 2080,880 2078,878 2076,877 L 1936,737 1452,1221 1389,1221 1937,673 C 1941,673 1945,674 1949,676 1951,677 1953,679 1955,680 L 2075,801 2124,411 1735,461 1855,581 C 1857,583 1859,585 1860,587 1862,591 1863,595 1863,600 1863,605 1862,609 1860,613 1859,615 1857,617 1856,619 L 1382,1093 1318,1157 Z"/>
       </g>
      </g>
      <g class="com.sun.star.drawing.ClosedBezierShape">
       <g id="id14">
        <rect class="BoundingBox" stroke="none" fill="none" x="1386" y="931" width="1156" height="678"/>
        <path fill="rgb(0,0,0)" stroke="none" d="M 1443,1169 L 2085,1169 2085,958 C 2085,953 2086,949 2088,945 2090,941 2094,937 2098,935 2102,933 2106,931 2111,931 2116,931 2120,933 2124,935 2125,936 2126,936 2127,937 L 2530,1248 C 2533,1250 2535,1253 2537,1256 2539,1260 2541,1264 2541,1269 2541,1274 2539,1278 2537,1282 2535,1285 2533,1288 2530,1290 L 2127,1602 C 2126,1603 2125,1603 2124,1604 2120,1606 2116,1608 2111,1608 2106,1608 2102,1606 2098,1604 2094,1602 2090,1598 2088,1594 2086,1590 2085,1586 2085,1581 L 2085,1369 1437,1369 1387,1320 2123,1320 C 2124,1320 2124,1320 2124,1320 2128,1322 2132,1326 2134,1330 2136,1334 2138,1338 2138,1343 L 2138,1527 2471,1269 2138,1012 2138,1195 C 2138,1200 2136,1204 2134,1208 2132,1212 2128,1216 2124,1218 2122,1219 2120,1220 2118,1221 L 1391,1221 1443,1169 Z"/>
       </g>
      </g>
      <g class="com.sun.star.drawing.ClosedBezierShape">
       <g id="id15">
        <rect class="BoundingBox" stroke="none" fill="none" x="1317" y="1319" width="869" height="867"/>
        <path fill="rgb(0,0,0)" stroke="none" d="M 1387,1319 L 1459,1319 1939,1800 2077,1662 C 2079,1660 2081,1659 2083,1658 2087,1655 2091,1654 2096,1654 2101,1654 2105,1655 2109,1658 2113,1660 2117,1663 2119,1667 2121,1670 2122,1674 2122,1677 L 2185,2154 C 2185,2155 2185,2157 2185,2158 2185,2162 2184,2167 2181,2171 2179,2175 2176,2178 2172,2181 2167,2183 2163,2184 2158,2184 2157,2184 2156,2184 2155,2184 L 1679,2122 C 1675,2121 1672,2120 1669,2119 1665,2116 1661,2113 1659,2109 1657,2105 1656,2100 1656,2096 1656,2091 1657,2086 1659,2082 1660,2080 1662,2079 1663,2077 L 1802,1938 1318,1453 1318,1385 1866,1933 C 1866,1934 1866,1936 1866,1938 1866,1942 1865,1947 1863,1951 1861,1953 1860,1955 1858,1956 L 1739,2076 2128,2127 2077,1738 1958,1857 C 1956,1858 1954,1860 1952,1861 1948,1863 1944,1864 1939,1864 1936,1864 1933,1864 1930,1863 L 1387,1319 Z"/>
       </g>
      </g>
      <g class="com.sun.star.drawing.ClosedBezierShape">
       <g id="id16">
        <rect class="BoundingBox" stroke="none" fill="none" x="927" y="1384" width="679" height="1158"/>
        <path fill="rgb(0,0,0)" stroke="none" d="M 1219,1393 L 1219,2111 C 1219,2116 1217,2120 1215,2124 1213,2128 1209,2132 1205,2134 1201,2136 1197,2138 1192,2138 L 1008,2138 1266,2471 1524,2138 1341,2138 C 1336,2138 1332,2136 1328,2134 1324,2132 1320,2128 1318,2124 1318,2124 1318,2124 1318,2123 L 1318,1385 1368,1435 1368,2085 1578,2085 C 1583,2085 1587,2086 1591,2088 1595,2090 1599,2094 1601,2098 1603,2102 1605,2106 1605,2111 1605,2116 1603,2120 1601,2124 1600,2125 1600,2126 1599,2127 L 1287,2530 C 1285,2533 1282,2535 1279,2537 1275,2539 1271,2541 1266,2541 1261,2541 1257,2539 1253,2537 1250,2535 1247,2533 1245,2530 L 933,2127 C 932,2126 932,2125 931,2124 929,2120 928,2116 928,2111 928,2106 929,2102 931,2098 933,2094 937,2090 941,2088 945,2086 949,2085 954,2085 L 1166,2085 1166,1446 1219,1393 Z"/>
       </g>
      </g>
      <g class="com.sun.star.drawing.ClosedBezierShape">
       <g id="id17">
        <rect class="BoundingBox" stroke="none" fill="none" x="-2" y="931" width="1161" height="678"/>
        <path fill="rgb(0,0,0)" stroke="none" d="M 1107,1369 L 454,1369 454,1581 C 454,1586 453,1590 451,1594 449,1598 445,1602 441,1604 437,1606 433,1608 428,1608 423,1608 419,1606 415,1604 414,1603 413,1603 412,1602 L 9,1290 C 6,1288 4,1285 2,1282 0,1278 -2,1274 -2,1269 -2,1264 0,1260 2,1256 4,1253 6,1250 9,1248 L 412,937 C 413,936 414,936 415,935 419,933 423,931 428,931 433,931 437,933 441,935 445,937 449,941 451,945 453,949 454,953 454,958 L 454,1169 1101,1169 1153,1221 421,1221 C 419,1220 417,1219 415,1218 411,1216 407,1212 405,1208 403,1204 401,1200 401,1195 L 401,1012 68,1269 401,1527 401,1343 C 401,1338 403,1334 405,1330 407,1326 411,1322 415,1320 415,1320 415,1320 416,1320 L 1157,1320 1107,1369 Z"/>
       </g>
      </g>
      <g class="com.sun.star.drawing.ClosedBezierShape">
       <g id="id18">
        <rect class="BoundingBox" stroke="none" fill="none" x="353" y="1319" width="866" height="867"/>
        <path fill="rgb(0,0,0)" stroke="none" d="M 1218,1457 L 736,1939 876,2079 C 878,2081 879,2083 880,2085 883,2089 884,2093 884,2098 884,2103 883,2107 880,2111 878,2115 875,2119 871,2121 868,2123 864,2124 861,2124 L 383,2185 C 382,2185 381,2185 380,2185 375,2185 371,2184 367,2181 363,2179 360,2176 357,2172 355,2168 354,2163 354,2158 354,2157 354,2156 354,2155 L 414,1678 C 415,1675 416,1671 418,1668 420,1664 423,1661 427,1659 431,1656 436,1655 441,1655 445,1655 450,1656 454,1659 456,1660 458,1661 459,1663 L 599,1802 1082,1320 1157,1320 618,1859 C 616,1860 614,1862 612,1863 608,1865 604,1866 599,1866 595,1866 590,1865 586,1863 584,1862 582,1860 580,1859 L 460,1739 411,2128 800,2078 680,1958 C 678,1956 676,1954 675,1952 673,1948 672,1944 672,1939 L 1218,1394 1218,1457 Z"/>
       </g>
      </g>
      <g class="com.sun.star.drawing.ClosedBezierShape">
       <g id="id19">
        <rect class="BoundingBox" stroke="none" fill="none" x="351" y="353" width="867" height="869"/>
        <path fill="rgb(0,0,0)" stroke="none" d="M 1217,1149 L 670,603 C 670,602 670,600 670,599 670,594 671,590 673,586 674,584 676,582 678,580 L 798,460 409,410 458,799 578,679 C 580,678 582,676 584,675 588,673 593,672 597,672 600,672 603,672 606,673 L 1153,1221 1082,1221 597,736 457,875 C 456,877 454,878 452,879 448,882 443,883 439,883 434,883 429,882 425,879 421,877 418,874 416,870 414,867 413,863 412,860 L 352,383 C 352,382 352,381 352,380 352,375 353,370 355,366 358,362 361,359 365,357 369,354 373,353 378,353 379,353 380,353 381,353 L 859,414 C 862,414 866,415 869,417 873,419 876,423 878,427 881,431 882,435 882,440 882,445 881,449 878,453 877,455 876,457 874,459 L 734,599 1217,1082 1217,1149 Z"/>
       </g>
      </g>
      <g class="com.sun.star.drawing.ClosedBezierShape">
       <g id="id20">
        <rect class="BoundingBox" stroke="none" fill="none" x="927" y="-3" width="679" height="1160"/>
        <path fill="rgb(0,0,0)" stroke="none" d="M 1318,1156 L 1318,414 C 1320,410 1323,407 1327,405 1331,403 1335,401 1340,401 L 1524,401 1266,67 1008,401 1191,401 C 1196,401 1200,403 1204,405 1208,407 1212,411 1214,415 1216,419 1218,423 1218,428 L 1218,1150 1165,1097 1165,455 954,454 C 949,454 945,453 941,451 937,449 933,445 931,441 929,437 928,433 928,428 928,423 929,419 931,415 932,414 932,413 933,412 L 1245,8 C 1247,5 1250,3 1253,1 1257,-1 1261,-3 1266,-3 1271,-3 1275,-1 1279,1 1282,3 1285,5 1287,8 L 1599,412 C 1600,413 1600,414 1601,415 1603,419 1605,423 1605,428 1605,433 1603,437 1601,441 1599,445 1595,449 1591,451 1587,453 1583,454 1578,454 L 1367,454 1367,1107 1318,1156 Z"/>
       </g>
      </g>
      <g class="com.sun.star.drawing.CustomShape">
       <g id="id21">
        <rect class="BoundingBox" stroke="none" fill="none" x="1116" y="1116" width="309" height="321"/>
        <path fill="rgb(255,255,255)" stroke="none" d="M 1423,1276 C 1423,1304 1416,1331 1403,1356 1389,1380 1370,1400 1347,1414 1323,1428 1297,1435 1270,1435 1243,1435 1217,1428 1194,1414 1170,1400 1151,1380 1137,1356 1124,1331 1117,1304 1117,1276 1117,1248 1124,1221 1137,1197 1151,1172 1170,1152 1194,1138 1217,1124 1243,1117 1270,1117 1297,1117 1323,1124 1347,1138 1370,1152 1389,1172 1403,1196 1416,1221 1423,1248 1423,1276 L 1423,1276 Z"/>
        <path fill="none" stroke="rgb(255,255,255)" d="M 1423,1276 C 1423,1304 1416,1331 1403,1356 1389,1380 1370,1400 1347,1414 1323,1428 1297,1435 1270,1435 1243,1435 1217,1428 1194,1414 1170,1400 1151,1380 1137,1356 1124,1331 1117,1304 1117,1276 1117,1248 1124,1221 1137,1197 1151,1172 1170,1152 1194,1138 1217,1124 1243,1117 1270,1117 1297,1117 1323,1124 1347,1138 1370,1152 1389,1172 1403,1196 1416,1221 1423,1248 1423,1276 L 1423,1276 Z"/>
       </g>
      </g>
     </g>
    </g>
   </g>
  </g>
 </g>
</svg>