<?xml version="1.0" encoding="UTF-8"?>
<!DOCTYPE svg PUBLIC "-//W3C//DTD SVG 1.1//EN" "http://www.w3.org/Graphics/SVG/1.1/DTD/svg11.dtd">
<svg version="1.2" width="25.4mm" height="25.4mm" viewBox="0 0 2540 2540" preserveAspectRatio="xMidYMid" fill-rule="evenodd" stroke-width="28.222" stroke-linejoin="round" xmlns="http://www.w3.org/2000/svg" xmlns:ooo="http://xml.openoffice.org/svg/export" xmlns:xlink="http://www.w3.org/1999/xlink" xmlns:presentation="http://sun.com/xmlns/staroffice/presentation" xmlns:smil="http://www.w3.org/2001/SMIL20/" xmlns:anim="urn:oasis:names:tc:opendocument:xmlns:animation:1.0" xml:space="preserve">
 <defs class="ClipPathGroup">
  <clipPath id="presentation_clip_path" clipPathUnits="userSpaceOnUse">
   <rect x="0" y="0" width="2540" height="2540"/>
  </clipPath>
  <clipPath id="presentation_clip_path_shrink" clipPathUnits="userSpaceOnUse">
   <rect x="2" y="2" width="2535" height="2535"/>
  </clipPath>
 </defs>
 <defs class="TextShapeIndex">
  <g ooo:slide="id1" ooo:id-list="id3 id4 id5 id6 id7 id8 id9 id10 id11 id12 id13 id14 id15 id16 id17 id18 id19 id20"/>
 </defs>
 <defs class="EmbeddedBulletChars">
  <g id="bullet-char-template-57356" transform="scale(0.00048828125,-0.00048828125)">
   <path d="M 580,1141 L 1163,571 580,0 -4,571 580,1141 Z"/>
  </g>
  <g id="bullet-char-template-57354" transform="scale(0.00048828125,-0.00048828125)">
   <path d="M 8,1128 L 1137,1128 1137,0 8,0 8,1128 Z"/>
  </g>
  <g id="bullet-char-template-10146" transform="scale(0.00048828125,-0.00048828125)">
   <path d="M 174,0 L 602,739 174,1481 1456,739 174,0 Z M 1358,739 L 309,1346 659,739 1358,739 Z"/>
  </g>
  <g id="bullet-char-template-10132" transform="scale(0.00048828125,-0.00048828125)">
   <path d="M 2015,739 L 1276,0 717,0 1260,543 174,543 174,936 1260,936 717,1481 1274,1481 2015,739 Z"/>
  </g>
  <g id="bullet-char-template-10007" transform="scale(0.00048828125,-0.00048828125)">
   <path d="M 0,-2 C -7,14 -16,27 -25,37 L 356,567 C 262,823 215,952 215,954 215,979 228,992 255,992 264,992 276,990 289,987 310,991 331,999 354,1012 L 381,999 492,748 772,1049 836,1024 860,1049 C 881,1039 901,1025 922,1006 886,937 835,863 770,784 769,783 710,716 594,584 L 774,223 C 774,196 753,168 711,139 L 727,119 C 717,90 699,76 672,76 641,76 570,178 457,381 L 164,-76 C 142,-110 111,-127 72,-127 30,-127 9,-110 8,-76 1,-67 -2,-52 -2,-32 -2,-23 -1,-13 0,-2 Z"/>
  </g>
  <g id="bullet-char-template-10004" transform="scale(0.00048828125,-0.00048828125)">
   <path d="M 285,-33 C 182,-33 111,30 74,156 52,228 41,333 41,471 41,549 55,616 82,672 116,743 169,778 240,778 293,778 328,747 346,684 L 369,508 C 377,444 397,411 428,410 L 1163,1116 C 1174,1127 1196,1133 1229,1133 1271,1133 1292,1118 1292,1087 L 1292,965 C 1292,929 1282,901 1262,881 L 442,47 C 390,-6 338,-33 285,-33 Z"/>
  </g>
  <g id="bullet-char-template-9679" transform="scale(0.00048828125,-0.00048828125)">
   <path d="M 813,0 C 632,0 489,54 383,161 276,268 223,411 223,592 223,773 276,916 383,1023 489,1130 632,1184 813,1184 992,1184 1136,1130 1245,1023 1353,916 1407,772 1407,592 1407,412 1353,268 1245,161 1136,54 992,0 813,0 Z"/>
  </g>
  <g id="bullet-char-template-8226" transform="scale(0.00048828125,-0.00048828125)">
   <path d="M 346,457 C 273,457 209,483 155,535 101,586 74,649 74,723 74,796 101,859 155,911 209,963 273,989 346,989 419,989 480,963 531,910 582,859 608,796 608,723 608,648 583,586 532,535 482,483 420,457 346,457 Z"/>
  </g>
  <g id="bullet-char-template-8211" transform="scale(0.00048828125,-0.00048828125)">
   <path d="M -4,459 L 1135,459 1135,606 -4,606 -4,459 Z"/>
  </g>
  <g id="bullet-char-template-61548" transform="scale(0.00048828125,-0.00048828125)">
   <path d="M 173,740 C 173,903 231,1043 346,1159 462,1274 601,1332 765,1332 928,1332 1067,1274 1183,1159 1299,1043 1357,903 1357,740 1357,577 1299,437 1183,322 1067,206 928,148 765,148 601,148 462,206 346,322 231,437 173,577 173,740 Z"/>
  </g>
 </defs>
 <g>
  <g id="id2" class="Master_Slide">
   <g id="bg-id2" class="Background"/>
   <g id="bo-id2" class="BackgroundObjects"/>
  </g>
 </g>
 <g class="SlideGroup">
  <g>
   <g id="container-id1">
    <g id="id1" class="Slide" clip-path="url(#presentation_clip_path)">
     <g class="Page">
      <g class="com.sun.star.drawing.CustomShape">
       <g id="id3">
        <rect class="BoundingBox" stroke="none" fill="none" x="0" y="0" width="2542" height="2542"/>
        <path fill="rgb(255,255,255)" stroke="none" d="M 2541,1271 C 2541,1494 2482,1713 2371,1906 2259,2099 2099,2259 1906,2371 1713,2482 1494,2541 1271,2541 1047,2541 828,2482 635,2371 442,2259 282,2099 170,1906 59,1713 0,1494 0,1271 0,1047 59,828 170,635 282,442 442,282 635,170 828,59 1047,0 1270,0 1494,0 1713,59 1906,170 2099,282 2259,442 2371,635 2482,828 2541,1047 2541,1270 L 2541,1271 Z"/>
       </g>
      </g>
      <g class="com.sun.star.drawing.ClosedBezierShape">
       <g id="id4">
        <rect class="BoundingBox" stroke="none" fill="none" x="902" y="27" width="736" height="345"/>
        <path fill="rgb(255,0,0)" stroke="none" d="M 942,44 C 963,38 984,33 1006,28 1007,42 1010,55 1013,69 1019,91 1028,112 1040,133 1051,153 1065,171 1082,187 1098,204 1116,218 1137,229 1157,241 1178,250 1200,256 1223,262 1246,265 1269,265 1292,265 1315,262 1338,256 1360,250 1381,241 1402,229 1422,218 1440,204 1456,187 1473,171 1487,153 1498,133 1510,112 1519,91 1525,69 1529,55 1531,42 1533,28 1555,33 1577,38 1599,44 1612,47 1624,51 1636,54 1634,68 1631,82 1627,96 1619,127 1607,157 1590,185 1574,214 1554,240 1531,262 1509,285 1483,305 1454,321 1426,338 1396,350 1365,358 1334,367 1302,371 1269,371 1236,371 1204,367 1173,358 1142,350 1112,338 1084,321 1055,305 1029,285 1007,262 984,240 964,214 948,186 931,157 919,127 911,96 907,83 904,69 902,55 915,51 929,47 942,44 Z"/>
       </g>
      </g>
      <g class="com.sun.star.drawing.CustomShape">
       <g id="id5">
        <rect class="BoundingBox" stroke="none" fill="none" x="566" y="566" width="1407" height="1407"/>
        <path fill="none" stroke="rgb(255,0,0)" stroke-width="159" stroke-linejoin="round" d="M 1892,1269 C 1892,1378 1863,1486 1809,1581 1754,1675 1675,1754 1581,1809 1486,1863 1378,1892 1269,1892 1160,1892 1052,1863 958,1809 863,1754 784,1675 729,1581 675,1486 646,1378 646,1269 646,1160 675,1052 729,958 784,863 863,784 957,729 1052,675 1160,646 1269,646 1378,646 1486,675 1580,729 1675,784 1754,863 1809,957 1863,1052 1892,1160 1892,1269 L 1892,1269 Z"/>
       </g>
      </g>
      <g class="com.sun.star.drawing.ClosedBezierShape">
       <g id="id6">
        <rect class="BoundingBox" stroke="none" fill="none" x="28" y="902" width="344" height="735"/>
        <path fill="rgb(255,0,0)" stroke="none" d="M 45,1600 C 39,1578 33,1555 29,1532 42,1531 55,1528 69,1525 91,1519 112,1510 133,1498 153,1487 171,1473 187,1456 204,1440 218,1422 229,1402 241,1381 250,1360 256,1338 262,1315 265,1292 265,1269 265,1246 262,1223 256,1200 250,1178 241,1157 229,1137 218,1116 204,1098 187,1082 171,1065 153,1051 132,1040 112,1028 91,1019 69,1013 56,1010 43,1007 30,1006 34,985 39,964 45,943 48,929 52,916 56,902 70,904 83,907 96,911 127,919 157,931 185,948 214,964 240,984 262,1007 285,1029 305,1055 321,1083 338,1112 350,1142 358,1173 367,1204 371,1236 371,1269 371,1302 367,1334 358,1365 350,1396 338,1426 321,1455 305,1483 285,1509 262,1531 240,1554 214,1574 185,1590 157,1607 127,1619 96,1627 83,1631 69,1634 55,1636 51,1624 48,1612 45,1600 Z"/>
       </g>
      </g>
      <g class="com.sun.star.drawing.CustomShape">
       <g id="id7">
        <rect class="BoundingBox" stroke="none" fill="none" x="-2" y="931" width="1300" height="678"/>
        <path fill="none" stroke="rgb(0,0,0)" stroke-width="53" stroke-linejoin="round" d="M 1270,1195 L 428,1195 428,958 25,1269 428,1581 428,1343 1270,1343 1270,1195 Z"/>
       </g>
      </g>
      <g class="com.sun.star.drawing.ClosedBezierShape">
       <g id="id8">
        <rect class="BoundingBox" stroke="none" fill="none" x="2168" y="901" width="348" height="737"/>
        <path fill="rgb(255,0,0)" stroke="none" d="M 2498,943 C 2504,963 2509,984 2513,1005 2499,1007 2484,1009 2470,1013 2448,1019 2427,1028 2407,1040 2386,1051 2368,1065 2352,1082 2335,1098 2321,1116 2310,1137 2298,1157 2289,1178 2283,1200 2277,1223 2274,1246 2274,1269 2274,1292 2277,1315 2283,1338 2289,1360 2298,1381 2310,1402 2321,1422 2335,1440 2352,1456 2368,1473 2386,1487 2407,1498 2427,1510 2448,1519 2470,1525 2485,1529 2499,1531 2514,1533 2510,1555 2504,1578 2498,1600 2495,1612 2492,1624 2488,1636 2473,1634 2458,1631 2443,1627 2412,1619 2382,1607 2354,1590 2325,1574 2299,1554 2277,1531 2254,1509 2234,1483 2218,1455 2201,1426 2189,1396 2181,1365 2172,1334 2168,1302 2168,1269 2168,1236 2172,1204 2181,1173 2189,1142 2201,1112 2218,1084 2234,1055 2254,1029 2277,1007 2299,984 2325,964 2354,948 2382,931 2412,919 2443,911 2457,907 2472,904 2486,902 2491,915 2495,929 2498,943 Z"/>
       </g>
      </g>
      <g class="com.sun.star.drawing.CustomShape">
       <g id="id9">
        <rect class="BoundingBox" stroke="none" fill="none" x="1242" y="931" width="1300" height="678"/>
        <path fill="none" stroke="rgb(0,0,0)" stroke-width="53" stroke-linejoin="round" d="M 1269,1195 L 2111,1195 2111,958 2514,1269 2111,1581 2111,1343 1269,1343 1269,1195 Z"/>
       </g>
      </g>
      <g class="com.sun.star.drawing.CustomShape">
       <g id="id10">
        <rect class="BoundingBox" stroke="none" fill="none" x="929" y="-3" width="679" height="1301"/>
        <path fill="none" stroke="rgb(0,0,0)" stroke-width="53" stroke-linejoin="round" d="M 1193,1270 L 1193,428 956,428 1268,24 1580,428 1342,428 1342,1270 1193,1270 Z"/>
       </g>
      </g>
      <g class="com.sun.star.drawing.ClosedBezierShape">
       <g id="id11">
        <rect class="BoundingBox" stroke="none" fill="none" x="901" y="2168" width="737" height="348"/>
        <path fill="rgb(255,0,0)" stroke="none" d="M 1600,2498 C 1578,2504 1555,2510 1533,2514 1531,2499 1529,2485 1525,2470 1519,2448 1510,2427 1498,2406 1487,2386 1473,2368 1456,2352 1440,2335 1422,2321 1402,2310 1381,2298 1360,2289 1338,2283 1315,2277 1292,2274 1269,2274 1246,2274 1223,2277 1200,2283 1178,2289 1157,2298 1137,2310 1116,2321 1098,2335 1082,2352 1065,2368 1051,2386 1040,2407 1028,2427 1019,2448 1013,2470 1009,2484 1007,2499 1005,2513 984,2509 963,2504 943,2498 929,2495 915,2491 902,2486 904,2472 907,2457 911,2443 919,2412 931,2382 948,2354 964,2325 984,2299 1007,2277 1029,2254 1055,2234 1083,2218 1112,2201 1142,2189 1173,2181 1204,2172 1236,2168 1269,2168 1302,2168 1334,2172 1365,2181 1396,2189 1426,2201 1455,2218 1483,2234 1509,2254 1531,2277 1554,2299 1574,2325 1590,2353 1607,2382 1619,2412 1627,2443 1631,2458 1634,2473 1636,2488 1624,2492 1612,2495 1600,2498 Z"/>
       </g>
      </g>
      <g class="com.sun.star.drawing.CustomShape">
       <g id="id12">
        <rect class="BoundingBox" stroke="none" fill="none" x="929" y="1242" width="679" height="1300"/>
        <path fill="none" stroke="rgb(0,0,0)" stroke-width="53" stroke-linejoin="round" d="M 1343,1269 L 1343,2111 1580,2111 1268,2514 956,2111 1194,2111 1194,1269 1343,1269 Z"/>
       </g>
      </g>
      <g class="com.sun.star.drawing.ClosedBezierShape">
       <g id="id13">
        <rect class="BoundingBox" stroke="none" fill="none" x="1851" y="159" width="531" height="530"/>
        <path fill="rgb(255,0,0)" stroke="none" d="M 1906,172 C 1931,186 1954,200 1977,216 1973,226 1969,237 1966,248 1960,271 1957,294 1957,317 1957,340 1960,363 1966,386 1972,408 1981,429 1993,450 2004,470 2018,488 2035,504 2051,521 2069,535 2090,546 2110,558 2131,567 2153,573 2176,579 2199,582 2222,582 2245,582 2268,579 2291,573 2302,570 2313,566 2324,561 2341,586 2357,611 2371,636 2374,642 2377,647 2380,652 2360,662 2339,670 2318,675 2287,684 2255,688 2222,688 2189,688 2157,684 2126,675 2095,667 2065,655 2037,638 2008,622 1982,602 1960,579 1937,557 1917,531 1901,503 1884,474 1872,444 1864,413 1855,382 1851,350 1851,317 1851,284 1855,252 1864,221 1869,200 1877,180 1886,160 1893,164 1900,168 1906,172 Z"/>
       </g>
      </g>
      <g class="com.sun.star.drawing.CustomShape">
       <g id="id14">
        <rect class="BoundingBox" stroke="none" fill="none" x="1251" y="354" width="934" height="935"/>
        <path fill="none" stroke="rgb(0,0,0)" stroke-width="53" stroke-linejoin="round" d="M 1278,1162 L 1839,600 1680,442 2157,381 2097,858 1938,699 1377,1261 1278,1162 Z"/>
       </g>
      </g>
      <g class="com.sun.star.drawing.ClosedBezierShape">
       <g id="id15">
        <rect class="BoundingBox" stroke="none" fill="none" x="159" y="1851" width="530" height="531"/>
        <path fill="rgb(255,0,0)" stroke="none" d="M 637,2371 C 611,2357 586,2341 561,2324 566,2313 570,2302 573,2291 579,2268 582,2245 582,2222 582,2199 579,2176 573,2153 567,2131 558,2110 546,2089 535,2069 521,2051 504,2035 488,2018 470,2004 450,1993 429,1981 408,1972 386,1966 363,1960 340,1957 317,1957 294,1957 271,1960 248,1966 237,1969 226,1973 216,1977 200,1954 186,1931 172,1907 168,1900 164,1893 160,1886 180,1877 200,1869 221,1864 252,1855 284,1851 317,1851 350,1851 382,1855 413,1864 444,1872 474,1884 502,1901 531,1917 557,1937 579,1960 602,1982 622,2008 638,2036 655,2065 667,2095 675,2126 684,2157 688,2189 688,2222 688,2255 684,2287 675,2318 670,2339 662,2360 652,2380 647,2377 642,2374 637,2371 Z"/>
       </g>
      </g>
      <g class="com.sun.star.drawing.CustomShape">
       <g id="id16">
        <rect class="BoundingBox" stroke="none" fill="none" x="353" y="1251" width="934" height="935"/>
        <path fill="none" stroke="rgb(0,0,0)" stroke-width="53" stroke-linejoin="round" d="M 1160,1278 L 599,1840 441,1682 380,2158 857,2098 698,1939 1259,1377 1160,1278 Z"/>
       </g>
      </g>
      <g class="com.sun.star.drawing.ClosedBezierShape">
       <g id="id17">
        <rect class="BoundingBox" stroke="none" fill="none" x="161" y="161" width="528" height="528"/>
        <path fill="rgb(255,0,0)" stroke="none" d="M 172,637 C 186,611 202,587 218,563 228,567 238,570 248,573 271,579 294,582 317,582 340,582 363,579 386,573 408,567 429,558 450,546 470,535 488,521 504,504 521,488 535,470 546,450 558,429 567,408 573,386 579,363 582,340 582,317 582,294 579,271 573,248 570,238 567,228 563,218 587,202 611,186 636,172 642,168 648,165 654,162 663,181 670,201 675,221 684,252 688,284 688,317 688,350 684,382 675,413 667,444 655,474 638,503 622,531 602,557 579,579 557,602 531,622 503,638 474,655 444,667 413,675 382,684 350,688 317,688 284,688 252,684 221,675 201,670 181,663 162,654 165,648 168,642 172,637 Z"/>
       </g>
      </g>
      <g class="com.sun.star.drawing.CustomShape">
       <g id="id18">
        <rect class="BoundingBox" stroke="none" fill="none" x="353" y="353" width="934" height="935"/>
        <path fill="none" stroke="rgb(0,0,0)" stroke-width="53" stroke-linejoin="round" d="M 1160,1260 L 599,698 441,856 380,380 857,440 698,599 1259,1161 1160,1260 Z"/>
       </g>
      </g>
      <g class="com.sun.star.drawing.ClosedBezierShape">
       <g id="id19">
        <rect class="BoundingBox" stroke="none" fill="none" x="1851" y="1851" width="533" height="533"/>
        <path fill="rgb(255,0,0)" stroke="none" d="M 2371,1906 C 2357,1931 2342,1955 2327,1978 2315,1973 2303,1969 2291,1966 2268,1960 2245,1957 2222,1957 2199,1957 2176,1960 2153,1966 2131,1972 2110,1981 2090,1993 2069,2004 2051,2018 2035,2035 2018,2051 2004,2069 1993,2090 1981,2110 1972,2131 1966,2153 1960,2176 1957,2199 1957,2222 1957,2245 1960,2268 1966,2291 1969,2303 1973,2315 1978,2327 1955,2342 1931,2357 1907,2371 1900,2375 1894,2379 1887,2382 1877,2362 1870,2340 1864,2318 1855,2287 1851,2255 1851,2222 1851,2189 1855,2157 1864,2126 1872,2095 1884,2065 1901,2037 1917,2008 1937,1982 1960,1960 1982,1937 2008,1917 2037,1901 2065,1884 2095,1872 2126,1864 2157,1855 2189,1851 2222,1851 2255,1851 2287,1855 2318,1864 2340,1870 2362,1877 2382,1887 2379,1894 2375,1900 2371,1906 Z"/>
       </g>
      </g>
      <g class="com.sun.star.drawing.CustomShape">
       <g id="id20">
        <rect class="BoundingBox" stroke="none" fill="none" x="1249" y="1249" width="937" height="939"/>
        <path fill="none" stroke="rgb(0,0,0)" stroke-width="53" stroke-linejoin="round" d="M 1376,1276 L 1939,1840 2096,1683 2158,2160 1682,2098 1840,1940 1276,1376 1376,1276 Z"/>
       </g>
      </g>
     </g>
    </g>
   </g>
  </g>
 </g>
</svg>